<svg width="313" height="454" viewBox="0 0 313 454" fill="none" xmlns="http://www.w3.org/2000/svg">
<path d="M86.8619 257.217L81.3729 261.499L87.5572 264.682C99.7795 270.977 109.294 274.197 117.125 274.197C127.115 274.197 134.434 269 141.46 258.352L143.436 255.314L140.874 252.753C132.055 243.934 119.723 242.031 105.269 247.227C94.9491 250.96 87.1913 256.961 86.8619 257.217Z" fill="#97A3AE"/>
<path d="M78.7755 210.89C68.4927 214.586 60.6982 220.623 60.3688 220.88L54.8798 225.161L61.0641 228.345C73.2864 234.639 82.8008 237.859 90.6319 237.859C100.622 237.859 107.941 232.663 114.967 222.014L116.943 218.977L114.381 216.415C105.562 207.56 93.23 205.657 78.7755 210.89Z" fill="#97A3AE"/>
<path d="M50.6718 174.076C40.3889 177.772 32.5945 183.81 32.2651 184.066L26.7761 188.348L32.9604 191.532C45.1827 197.826 54.6971 201.046 62.5281 201.046C72.5182 201.046 79.837 195.85 86.8629 185.201L88.839 182.164L86.2775 179.602C77.4584 170.783 65.1629 168.88 50.6718 174.076Z" fill="#97A3AE"/>
<path d="M36.2901 166.245C46.2802 166.245 53.599 161.049 60.625 150.4L62.601 147.363L60.0395 144.801C51.2204 135.982 38.8883 134.079 24.4338 139.276C14.151 142.972 6.35649 149.01 6.02714 149.266L0.538086 153.511L6.72242 156.694C18.9447 163.025 28.4225 166.245 36.2901 166.245Z" fill="#97A3AE"/>
<path d="M127.555 121.638C127.336 121.967 104.867 153.767 128.177 180.517L131.215 183.993L134.581 180.81C154.744 161.744 143.51 133.75 134.764 121.638L131.141 116.624L127.555 121.638Z" fill="#E43D30"/>
<path d="M93.9247 138.288L97.2913 135.104C117.454 116.039 106.22 88.0445 97.4743 75.932L93.8515 70.9186L90.2287 75.8954C90.0092 76.2247 67.5406 108.025 90.8508 134.775L93.9247 138.288Z" fill="#97A3AE"/>
<path d="M155.329 97.6686H159.94L159.757 93.0578C158.622 61.1481 133.922 51.1214 121.041 50.2797L114.966 49.8772L116.43 55.8054C116.869 57.4887 127.225 97.6686 155.329 97.6686Z" fill="#97A3AE"/>
<path d="M196.973 125.443L201.767 122.516C227.2 107.037 223.211 77.1762 217.576 63.5268L215.087 57.5254L210.403 61.9898C209.342 63.0144 184.422 87.2029 195.253 120.064L196.973 125.443Z" fill="#97A3AE"/>
<path d="M241.289 128.993L239.642 132.323L242.606 134.518C247.583 138.214 252.669 140.3 257.682 141.178C275.577 144.326 292.447 132.176 300.204 123.431L304.815 118.234L298.155 116.222C296.399 115.709 253.913 103.267 241.289 128.993Z" fill="#97A3AE"/>
<path d="M263.537 162.257L268.148 157.06L261.488 155.048C259.695 154.499 217.21 142.057 204.585 167.819L202.938 171.149L205.902 173.344C210.879 177.04 215.966 179.126 220.979 180.005C238.873 183.152 255.743 171.002 263.537 162.257Z" fill="#97A3AE"/>
<path d="M225.113 201.046L219.99 204.815C219.698 205.035 213.184 209.865 207.658 217.952C200.083 229.003 197.924 240.86 201.401 252.204L202.682 256.339L206.853 255.205C214.867 253.009 220.832 248.508 224.565 241.811C232.652 227.393 227.163 207.999 226.907 207.194L225.113 201.046Z" fill="#97A3AE"/>
<path d="M249.339 261.645L245.387 265.231L249.632 268.452C259.805 276.209 269.722 278.808 278.431 278.808C295.813 278.808 308.402 268.488 308.585 268.305L312.61 264.939L308.621 261.535C298.046 252.533 272.064 240.933 249.339 261.645Z" fill="#97A3AE"/>
<path d="M153.17 353.166L153.755 266.841C153.243 254.583 152.292 240.457 141.496 226.332C107.464 181.834 68.492 136.275 57.4041 122.955L56.0501 122.772C29.3733 118.783 21.2129 91.8136 20.6274 78.1276L20.3712 71.8701L26.3726 73.6998C39.2902 77.6153 63.1859 92.0698 61.1367 118.747L61.0635 119.735C74.9691 135.799 135.678 204.12 146.327 215.757C155.329 225.637 165.026 225.637 166.893 213.524C169.82 194.313 170.698 92.143 171.211 62.868L170.479 62.063C152.328 42.3023 162.208 16.1744 169.966 5.12312L173.553 0L177.212 5.08653C185.226 16.211 195.472 42.4487 176.956 62.063L176.151 62.9046C176.517 81.5674 177.614 126.468 178.054 137.958C178.566 151.754 182.847 152.925 189.91 147.619C203.596 137.336 234.371 112.379 245.532 101.987L245.679 99.2788C246.996 72.5653 272.502 61.2213 285.822 58.9525L292.006 57.8913L290.945 64.0756C288.676 77.5787 277.223 103.304 250.216 103.926L248.716 103.963C238.031 114.246 212.342 139.898 200.193 152.669C189.105 164.306 183.579 166.758 183.726 177.919C183.945 197.826 183.726 261.096 184.238 268.744C184.75 276.392 190.056 282.869 201.803 275.697C212.269 269.33 243.593 243.568 253.18 235.151L253.254 233.944C254.571 207.23 280.077 195.886 293.397 193.617L299.581 192.556L298.52 198.74C296.251 212.244 284.797 237.969 257.791 238.591L256.035 238.628C245.24 249.569 210.073 282.723 203.376 289.859C196.241 297.507 196.167 313.206 196.167 329.051V465.106C196.167 468.875 196.497 469.9 199.937 472.644L220.136 487.355V488.05H129.421V487.355L149.62 472.644C152.694 470.266 153.023 468.875 153.023 465.106L153.17 353.166Z" fill="#97A3AE"/>
</svg>
